<?xml version="1.0" standalone="no"?>
<!DOCTYPE svg PUBLIC "-//W3C//DTD SVG 20010904//EN"
 "http://www.w3.org/TR/2001/REC-SVG-20010904/DTD/svg10.dtd">
<svg version="1.0" xmlns="http://www.w3.org/2000/svg"
 width="3840.000000pt" height="2160.000000pt" viewBox="0 0 3840.000000 2160.000000"
 preserveAspectRatio="xMidYMid meet">

<g transform="translate(0.000000,2160.000000) scale(0.100000,-0.100000)"
fill="#000000" stroke="none">
<path d="M32365 18962 c-48 -5 -195 -41 -229 -56 -17 -7 -56 -24 -86 -37 -211
-93 -404 -302 -490 -532 -46 -122 -60 -202 -60 -339 -1 -138 7 -202 35 -279 9
-24 22 -63 29 -86 32 -99 140 -258 237 -347 141 -131 287 -203 509 -253 54
-12 217 -13 287 -3 89 14 229 57 301 94 197 100 372 281 454 471 36 82 44 128
24 144 -27 23 -50 7 -81 -54 -31 -63 -42 -77 -115 -158 -41 -46 -180 -147
-201 -147 -5 0 -28 -8 -52 -18 -173 -76 -402 -63 -587 34 -103 54 -207 149
-261 239 -16 28 -34 57 -39 65 -13 21 -37 80 -45 110 -21 79 -25 101 -30 165
-9 106 30 303 70 355 7 8 15 23 18 32 15 43 127 175 186 220 126 95 242 137
396 145 219 11 396 -60 559 -223 43 -43 79 -44 84 -2 5 41 -90 153 -225 266
-28 23 -54 42 -58 42 -4 0 -20 9 -35 20 -121 86 -419 152 -595 132z m290 -52
c145 -36 162 -42 275 -107 101 -58 179 -120 236 -190 28 -34 30 -40 14 -36
-12 3 -25 14 -31 24 -5 11 -16 19 -25 19 -8 0 -17 7 -20 15 -4 8 -12 15 -19
15 -7 0 -15 4 -17 8 -4 10 -158 76 -213 91 -80 22 -234 25 -324 6 -162 -33
-273 -94 -396 -219 -152 -154 -222 -354 -204 -585 9 -110 18 -143 68 -251 95
-208 327 -383 546 -415 152 -22 298 -7 403 41 29 13 57 24 62 24 6 0 10 5 10
10 0 6 5 10 12 10 34 0 176 120 247 210 46 58 49 38 5 -32 -13 -21 -24 -40
-24 -43 0 -16 -91 -127 -149 -184 -120 -115 -246 -186 -416 -232 -133 -37
-418 -30 -497 12 -10 5 -25 9 -33 9 -25 0 -165 73 -240 126 -123 86 -247 235
-304 365 -13 30 -28 63 -33 73 -36 68 -67 367 -47 451 4 17 15 64 24 105 23
97 59 183 110 260 77 117 175 215 290 292 86 58 246 117 385 142 45 8 254 -2
305 -14z"/>
<path d="M9995 11307 c-117 -15 -221 -39 -300 -69 -71 -26 -193 -82 -235 -107
-8 -5 -40 -14 -71 -21 -140 -28 -272 -124 -349 -253 -25 -42 -50 -77 -57 -77
-13 0 -173 -158 -173 -171 0 -4 -13 -29 -29 -54 -16 -26 -35 -69 -42 -96 -7
-27 -17 -49 -21 -49 -5 0 -38 31 -74 69 -36 38 -87 84 -114 101 -27 17 -60 50
-74 73 -14 23 -39 56 -56 72 -17 17 -41 41 -53 53 -38 40 -149 117 -217 150
-83 40 -181 54 -357 51 -76 -1 -174 2 -218 8 -95 11 -265 0 -345 -23 -155 -44
-325 -150 -407 -251 -21 -27 -41 -49 -45 -51 -5 -2 -8 -10 -8 -17 0 -12 -52
-45 -71 -45 -15 0 -111 -69 -161 -116 -118 -111 -216 -245 -277 -379 -18 -38
-36 -79 -42 -90 -25 -52 -57 -182 -69 -281 -32 -256 4 -527 91 -697 11 -21 17
-42 14 -47 -3 -5 -8 -22 -11 -37 -2 -16 -8 -48 -12 -73 -10 -54 9 -223 33
-300 18 -59 79 -185 101 -210 11 -14 5 -25 -49 -83 -115 -123 -218 -290 -232
-374 -4 -24 -11 -46 -17 -49 -6 -4 -9 -56 -6 -137 3 -148 10 -136 -91 -162
-77 -20 -210 -100 -264 -159 -41 -44 -107 -140 -107 -156 0 -5 -9 -24 -19 -42
-11 -18 -29 -59 -41 -90 -14 -38 -27 -58 -38 -59 -9 0 -59 -2 -109 -4 -51 -2
-103 -6 -115 -10 -13 -4 -31 -9 -40 -11 -13 -4 -18 0 -18 14 0 24 -84 195
-105 212 -8 7 -15 18 -15 24 -1 15 -64 81 -126 131 -27 21 -51 42 -54 46 -6 8
-53 35 -159 92 -195 105 -501 118 -662 29 l-47 -26 -35 27 c-20 15 -40 27 -46
27 -5 0 -16 6 -23 13 -16 16 -114 42 -223 61 -58 10 -107 12 -176 6 -357 -31
-637 -210 -784 -500 -35 -69 -85 -222 -85 -259 0 -30 -17 -40 -70 -41 -14 -1
-45 -12 -70 -25 -25 -13 -55 -29 -68 -34 -42 -19 -195 -182 -207 -220 -11 -37
-32 -45 -57 -21 -12 11 -34 23 -48 26 -49 11 -50 12 -50 62 0 58 -29 123 -77
173 -34 36 -34 37 -22 80 6 24 12 94 12 154 0 120 -14 173 -77 285 -62 113
-195 252 -286 301 -16 9 -36 21 -43 27 -17 14 -189 71 -251 83 -58 11 -213 13
-238 4 -13 -5 -24 9 -53 67 -95 189 -228 328 -385 401 -137 64 -280 94 -455
96 -115 1 -169 -8 -173 -30 -2 -13 20 -15 165 -16 181 0 247 -10 378 -60 121
-46 251 -136 306 -211 13 -18 29 -39 34 -45 44 -54 110 -177 120 -226 7 -31 9
-33 39 -26 149 33 311 7 496 -78 80 -37 214 -153 246 -212 10 -19 22 -35 26
-35 3 0 14 -15 24 -32 80 -153 95 -210 88 -322 -3 -48 -9 -98 -14 -111 -5 -13
-6 -25 -4 -28 3 -3 0 -15 -6 -27 -10 -19 -7 -25 27 -55 57 -48 82 -106 79
-182 -2 -62 -1 -63 25 -63 27 0 52 -11 102 -44 22 -15 27 -24 22 -40 -4 -12
-12 -48 -18 -80 l-12 -59 -82 2 c-75 2 -86 0 -155 -34 -77 -38 -125 -79 -125
-108 0 -23 3 -22 56 21 80 67 174 93 275 78 61 -10 76 -1 76 43 0 44 28 139
59 200 24 47 98 140 144 181 52 47 153 92 219 97 32 3 60 9 63 12 2 4 6 28 9
53 9 76 33 153 70 233 85 182 205 304 401 407 163 86 426 118 605 74 93 -23
196 -70 210 -96 10 -19 60 -29 60 -12 0 13 89 51 156 66 76 17 245 18 321 1
207 -44 414 -180 533 -350 38 -54 90 -157 90 -179 0 -8 8 -24 18 -36 17 -22
21 -22 113 -12 81 9 123 11 255 14 19 0 23 9 33 69 9 58 53 172 72 189 3 3 15
21 27 41 21 35 106 119 121 119 4 0 23 12 42 26 48 37 92 55 179 74 l75 16 -3
125 c-3 120 1 155 36 264 16 48 93 185 105 185 4 0 7 5 7 12 0 6 22 37 48 67
70 82 112 138 112 149 0 5 -19 45 -41 88 -54 103 -77 178 -91 294 -9 79 -8
111 6 190 10 61 13 96 6 98 -5 2 -10 10 -10 18 0 8 -8 31 -19 52 -68 136 -99
444 -65 654 16 100 82 320 103 341 6 6 11 14 11 18 0 16 78 138 131 205 60 76
179 190 217 207 12 6 22 13 22 17 0 4 20 15 45 24 31 12 55 32 79 64 52 71
133 145 213 196 39 25 74 46 77 46 4 0 25 9 49 19 37 17 65 26 117 38 114 25
257 29 379 9 60 -10 94 -11 120 -4 75 21 330 -7 363 -40 7 -7 18 -12 25 -12
42 0 303 -228 303 -264 0 -15 31 -42 96 -86 39 -26 115 -101 150 -147 38 -51
82 -156 107 -258 51 -207 55 -298 18 -510 -8 -42 -6 -53 9 -70 25 -28 41 -85
42 -147 0 -100 19 -118 38 -38 7 28 9 67 5 88 -7 41 -34 104 -48 113 -10 7 -4
66 15 155 7 36 7 89 0 185 -11 140 -34 245 -79 364 -29 74 -30 93 -8 165 37
126 115 231 234 317 22 16 44 44 55 70 10 24 22 43 27 43 5 0 9 6 9 14 0 19
113 122 158 145 47 24 189 71 213 71 10 0 20 4 23 8 5 8 100 57 166 85 207 89
533 112 725 50 148 -48 296 -142 416 -265 42 -43 82 -78 88 -78 41 0 193 -110
284 -204 68 -71 146 -182 177 -252 37 -82 39 -88 51 -119 15 -38 38 -153 54
-270 16 -120 -3 -434 -30 -488 -17 -35 -20 -73 -5 -82 5 -3 23 -34 40 -68 48
-101 58 -223 30 -377 -23 -121 -23 -119 50 -156 36 -19 66 -38 68 -44 2 -5 10
-10 18 -10 14 0 91 -52 125 -85 9 -8 20 -15 25 -15 10 0 196 -178 235 -225 14
-17 28 -38 32 -48 3 -9 11 -17 17 -17 5 0 10 -5 10 -11 0 -6 10 -25 23 -42 46
-65 122 -210 160 -307 34 -86 95 -320 102 -393 4 -32 8 -67 10 -79 3 -11 7
-69 11 -127 3 -58 7 -107 8 -108 1 -2 37 -8 80 -13 83 -12 176 -47 176 -67 0
-7 3 -13 8 -13 4 0 16 -18 26 -40 11 -22 22 -40 25 -40 3 0 41 7 84 15 134 26
420 3 461 -36 6 -5 19 -9 29 -9 10 0 32 -7 48 -15 16 -8 44 -22 62 -31 69 -35
141 -88 203 -150 118 -118 164 -210 230 -459 3 -11 7 -54 9 -95 1 -41 3 -84 4
-96 1 -18 9 -22 59 -28 102 -11 166 -42 232 -113 65 -69 73 -89 80 -178 l5
-80 37 -2 c54 -3 97 -29 114 -69 17 -40 39 -43 65 -10 33 42 135 103 211 126
163 51 409 17 533 -74 49 -37 51 -37 89 -6 85 67 262 93 367 55 91 -34 98 -30
99 50 1 137 114 401 245 571 57 75 233 234 258 234 4 0 35 17 69 38 70 41 95
52 218 92 119 39 180 48 295 45 241 -6 505 -94 605 -200 29 -31 60 -33 60 -5
0 25 24 74 48 98 35 35 109 92 119 92 6 0 24 7 39 15 53 27 255 5 285 -32 23
-27 48 -15 59 30 14 51 72 154 131 232 24 32 53 70 64 84 11 15 52 58 90 95
179 174 442 292 715 321 125 13 148 14 240 5 156 -16 193 -22 235 -37 22 -8
58 -19 80 -24 22 -5 54 -16 70 -24 17 -7 42 -17 58 -20 15 -4 27 -11 27 -16 0
-5 8 -9 18 -9 9 0 28 -9 42 -20 14 -11 29 -20 33 -20 18 0 155 -101 214 -157
57 -55 99 -111 155 -213 22 -40 44 -113 40 -132 -2 -7 27 -100 33 -106 2 -2
25 4 52 13 49 17 178 22 258 10 64 -10 227 -64 277 -93 94 -54 165 -108 233
-177 110 -110 209 -250 235 -331 7 -22 16 -43 20 -49 16 -21 23 -84 24 -195 0
-88 -4 -126 -18 -160 -32 -80 -32 -96 1 -107 88 -31 160 -173 124 -242 -5 -9
-11 -34 -13 -56 l-3 -38 50 -1 c37 -1 68 -10 112 -34 64 -34 92 -29 56 10 -23
26 -110 68 -141 68 -23 0 -24 3 -18 43 18 123 -15 200 -112 266 -32 23 -35 39
-14 91 25 64 29 214 8 315 -26 124 -155 327 -292 460 -61 59 -167 145 -179
145 -4 0 -19 8 -33 18 -35 24 -176 81 -217 88 -11 2 -38 8 -60 13 -55 13 -198
17 -267 7 l-56 -8 -12 58 c-20 97 -93 238 -166 322 -69 77 -248 207 -352 254
-37 16 -74 33 -82 37 -8 4 -40 14 -70 24 -30 9 -77 24 -105 33 -27 8 -66 17
-85 19 -19 1 -44 6 -55 11 -24 10 -311 10 -385 0 -173 -23 -379 -97 -515 -186
-16 -11 -39 -24 -51 -29 -39 -17 -241 -213 -268 -261 -6 -9 -31 -46 -56 -81
-48 -67 -100 -165 -100 -186 0 -18 -16 -16 -75 6 -34 12 -80 19 -141 20 -89 2
-92 1 -161 -39 -66 -37 -145 -110 -170 -154 -10 -19 -11 -19 -39 3 -75 58
-151 94 -267 127 -26 7 -51 15 -56 19 -25 15 -228 34 -331 31 -111 -3 -148 -9
-255 -43 -45 -14 -177 -72 -215 -93 -93 -54 -125 -75 -176 -117 -69 -56 -156
-148 -206 -218 -31 -42 -133 -236 -159 -300 -27 -67 -48 -148 -53 -199 -3 -32
-7 -61 -10 -63 -2 -3 -35 2 -73 10 -89 19 -223 12 -273 -13 -8 -5 -31 -16 -50
-24 -19 -9 -43 -22 -52 -28 -14 -10 -22 -8 -45 10 -81 63 -225 98 -394 95
-150 -3 -233 -32 -366 -129 -21 -15 -24 -14 -65 19 -24 19 -59 37 -78 41 -34
6 -36 8 -32 40 9 79 -70 213 -160 269 -39 24 -129 60 -158 62 -14 1 -32 3 -41
4 -13 1 -17 19 -22 94 -7 99 -41 237 -76 305 -11 22 -21 46 -21 52 0 6 -8 23
-18 38 -11 15 -32 47 -47 70 -53 80 -219 232 -253 232 -6 0 -12 4 -14 8 -9 22
-173 86 -308 120 -63 15 -280 15 -348 -2 -62 -14 -63 -14 -72 7 -30 70 -104
115 -222 137 l-68 12 -1 62 c-3 167 -40 362 -106 556 -34 99 -108 269 -122
280 -4 3 -27 39 -51 80 -125 211 -362 423 -597 533 -30 15 -31 17 -21 54 13
49 18 91 22 183 6 118 -7 187 -52 278 l-40 82 19 62 c19 64 37 246 33 353 -1
52 -6 109 -19 215 -31 252 -188 518 -402 683 -34 26 -66 47 -71 47 -6 0 -12 3
-14 8 -1 4 -25 18 -53 31 -27 13 -77 51 -110 85 -34 33 -76 72 -94 86 -19 14
-48 37 -65 51 -77 66 -291 157 -381 164 -16 2 -50 6 -75 9 -71 11 -160 12
-225 3z"/>
<path d="M9810 7766 c-39 -12 -80 -66 -80 -103 0 -76 63 -129 134 -113 45 10
106 66 106 98 0 81 -84 143 -160 118z"/>
<path d="M8380 7573 c-49 -33 -60 -54 -60 -109 0 -46 4 -55 30 -77 69 -58 156
-40 192 39 24 55 15 88 -34 133 -38 35 -89 41 -128 14z"/>
<path d="M11402 7568 c-22 -12 -64 -39 -92 -60 -56 -42 -61 -44 -98 -24 -79
40 -184 86 -196 86 -14 0 -78 -39 -184 -111 -40 -28 -45 -28 -70 -15 -15 8
-49 22 -77 32 -27 9 -69 26 -92 37 -40 21 -43 21 -75 4 -47 -25 -165 -118
-184 -145 -29 -42 -1 -46 42 -7 21 20 64 53 94 73 30 20 58 41 62 46 4 6 36
-3 75 -21 170 -75 187 -79 219 -54 15 12 33 21 40 21 7 0 17 6 21 13 8 12 36
32 63 44 8 3 25 14 38 24 25 20 26 19 187 -56 59 -27 74 -31 95 -21 14 6 28
14 31 19 4 5 16 14 27 20 52 30 121 81 126 93 9 23 -9 24 -52 2z"/>
<path d="M11505 7287 c-11 -7 -65 -38 -120 -69 -146 -83 -136 -83 -290 -7 -33
17 -69 30 -80 31 -11 1 -58 -21 -105 -49 -47 -28 -92 -52 -100 -55 -8 -3 -49
12 -90 33 -110 56 -120 57 -187 19 -59 -33 -132 -86 -145 -105 -4 -5 -3 -14 2
-19 7 -7 102 43 120 64 3 3 22 16 44 28 34 20 43 21 75 11 20 -6 43 -17 51
-24 19 -16 108 -55 125 -55 7 0 55 25 106 55 51 30 96 55 101 55 4 0 56 -22
116 -50 60 -27 114 -50 119 -50 10 0 65 28 138 70 22 13 73 42 114 64 41 23
76 47 79 54 5 15 -45 15 -73 -1z"/>
<path d="M25106 7233 c-1 -1 -33 -7 -71 -13 -126 -20 -269 -76 -377 -147 -42
-28 -136 -118 -192 -184 l-38 -45 -87 28 c-76 26 -96 28 -166 23 -100 -7 -189
-47 -235 -105 -34 -43 -26 -42 -117 -4 -70 31 -229 64 -345 73 -143 11 -284 0
-401 -30 -93 -24 -269 -101 -310 -136 -16 -12 -32 -23 -36 -23 -15 0 -135
-100 -190 -158 -68 -72 -143 -183 -177 -262 -8 -19 -19 -44 -24 -55 -20 -44
-49 -157 -60 -234 -11 -73 -14 -81 -34 -81 -23 0 -122 -32 -133 -43 -3 -4 -13
-7 -21 -7 -35 0 -176 -133 -240 -226 -18 -25 -33 -52 -51 -89 -11 -22 -25 -47
-30 -55 -13 -23 -28 -60 -41 -105 -27 -93 -29 -95 -85 -89 -58 7 -164 -16
-238 -52 -92 -44 -177 -124 -181 -170 -2 -28 19 -26 35 3 66 125 290 209 446
167 18 -5 23 -1 28 22 4 16 10 38 15 49 4 11 13 36 20 55 18 52 40 103 50 120
6 8 15 26 21 40 17 41 81 129 139 193 62 68 168 124 276 147 l61 14 7 80 c18
241 155 492 346 636 25 19 47 37 50 40 23 27 229 140 255 140 8 0 23 4 33 9
53 29 228 60 352 63 174 3 392 -43 539 -115 24 -12 34 -5 83 66 31 45 114 76
204 77 96 2 115 -2 177 -29 65 -28 79 -27 106 10 42 56 163 179 205 207 52 35
168 92 187 92 8 0 19 4 25 9 5 5 50 19 99 31 106 25 281 26 385 3 160 -35 185
-44 308 -106 34 -18 77 -40 96 -49 47 -24 189 -167 232 -233 49 -78 90 -171
98 -228 4 -26 11 -47 16 -47 4 0 13 -13 19 -30 5 -16 16 -30 24 -30 17 0 118
-50 135 -67 7 -7 16 -13 20 -13 4 0 23 -25 42 -55 19 -30 40 -55 45 -55 6 0
28 7 50 14 110 38 313 17 441 -45 135 -66 272 -210 290 -305 9 -48 25 -58 70
-44 48 16 108 6 150 -26 34 -27 54 -25 54 4 0 28 59 104 120 155 32 26 61 47
65 47 4 0 24 13 44 29 31 24 106 63 226 116 17 7 75 26 130 41 90 26 115 28
250 28 83 0 177 -6 210 -13 104 -22 296 -81 344 -106 25 -14 50 -25 56 -25 11
0 126 -72 185 -115 91 -66 187 -180 235 -278 64 -132 81 -231 85 -489 0 -22 5
-28 22 -28 19 0 55 -14 133 -51 32 -16 75 -84 75 -119 0 -18 -5 -50 -11 -71
-15 -48 -4 -64 49 -74 40 -7 112 -44 112 -57 0 -4 5 -8 11 -8 19 0 69 -58 87
-102 34 -81 45 -135 38 -197 -7 -65 3 -84 32 -58 25 21 52 28 141 32 l79 4
-14 -27 c-8 -15 -14 -35 -14 -44 0 -9 -4 -19 -8 -22 -8 -5 -31 -92 -38 -146
-18 -124 4 -339 41 -410 8 -16 15 -33 15 -38 0 -5 -140 -9 -317 -10 -175 -1
-529 -4 -788 -7 -258 -3 -681 -7 -940 -10 -258 -3 -605 -7 -770 -10 -165 -3
-464 -7 -665 -10 -201 -3 -446 -8 -545 -10 -99 -2 -344 -7 -545 -10 -381 -6
-644 -11 -1065 -20 -137 -3 -351 -7 -475 -10 -124 -2 -299 -7 -390 -9 -91 -3
-291 -8 -445 -11 -154 -3 -334 -7 -400 -10 -66 -3 -232 -7 -370 -10 -137 -3
-315 -7 -395 -10 -80 -3 -235 -7 -345 -10 -239 -6 -495 -13 -700 -20 -82 -2
-235 -7 -340 -10 -198 -5 -433 -13 -620 -20 -60 -2 -189 -7 -285 -10 -435 -14
-900 -30 -1125 -40 -71 -3 -200 -8 -285 -10 -85 -2 -155 -5 -155 -5 0 -2 -148
-8 -360 -14 -209 -7 -369 -13 -515 -21 -101 -5 -289 -13 -485 -20 -258 -10
-392 -16 -445 -20 -30 -2 -140 -7 -245 -10 -104 -3 -221 -8 -260 -10 -38 -3
-126 -8 -195 -10 -69 -3 -159 -7 -200 -9 -87 -5 -286 -14 -450 -21 -63 -3
-149 -8 -190 -10 -41 -3 -133 -7 -205 -10 -71 -3 -164 -7 -205 -10 -41 -3
-133 -8 -205 -11 -71 -3 -155 -6 -185 -8 -30 -2 -125 -6 -210 -10 -85 -4 -180
-9 -210 -11 -71 -6 -205 -13 -355 -20 -66 -3 -158 -8 -205 -10 -47 -3 -123 -7
-170 -10 -47 -3 -128 -7 -180 -10 -52 -3 -135 -8 -185 -10 -49 -3 -123 -7
-163 -10 -177 -12 -326 -21 -497 -30 -49 -2 -128 -7 -175 -10 -109 -6 -228
-13 -360 -20 -58 -3 -134 -8 -170 -11 -36 -2 -101 -7 -145 -9 -102 -6 -206
-12 -320 -20 -49 -3 -128 -8 -175 -10 -47 -3 -141 -10 -210 -16 -69 -6 -165
-12 -215 -15 -49 -2 -115 -6 -145 -8 -30 -3 -102 -7 -160 -10 -58 -3 -130 -9
-160 -12 -62 -6 -113 -10 -280 -18 -63 -4 -133 -8 -155 -11 -49 -6 -122 -11
-470 -35 -141 -10 -198 -14 -320 -25 -27 -3 -115 -9 -195 -15 -186 -13 -793
-59 -845 -65 -22 -2 -74 -6 -115 -9 -41 -3 -100 -8 -130 -11 -50 -4 -341 -28
-485 -40 -33 -2 -85 -7 -115 -10 -30 -2 -84 -7 -120 -10 -36 -3 -85 -8 -110
-10 -25 -3 -74 -7 -110 -10 -76 -6 -232 -21 -485 -45 -55 -5 -134 -12 -175
-16 -41 -3 -91 -8 -110 -10 -35 -4 -83 -8 -210 -19 -36 -3 -148 -14 -250 -25
-102 -10 -212 -21 -244 -24 -33 -3 -80 -8 -105 -11 -131 -14 -194 -20 -411
-40 -25 -2 -65 -6 -90 -9 -25 -3 -67 -8 -95 -11 -27 -3 -84 -9 -125 -15 -41
-5 -102 -12 -135 -15 -33 -4 -94 -10 -135 -15 -168 -21 -301 -36 -405 -45 -27
-3 -61 -7 -75 -10 -14 -3 -83 -12 -155 -20 -136 -15 -354 -41 -417 -50 -21 -3
-57 -7 -80 -10 -24 -3 -72 -10 -108 -15 -36 -5 -92 -12 -125 -15 -33 -3 -87
-10 -120 -16 -49 -8 -333 -47 -475 -65 -19 -3 -62 -9 -95 -14 -33 -5 -96 -14
-140 -20 -44 -6 -122 -18 -173 -26 -131 -21 -135 -22 -257 -39 -60 -8 -116
-17 -125 -20 -8 -2 -35 -7 -60 -10 -25 -3 -52 -8 -60 -10 -8 -3 -58 -11 -110
-19 -52 -9 -106 -18 -120 -21 -14 -3 -38 -7 -55 -10 -16 -3 -55 -9 -85 -15
-30 -5 -84 -14 -118 -20 -94 -15 -253 -48 -259 -54 -2 -2 -3 -13 -1 -24 3 -19
6 -19 143 8 205 39 410 77 490 90 39 6 95 15 125 20 30 5 84 14 120 19 36 6
137 22 225 36 88 14 203 32 255 40 52 8 109 17 125 19 90 10 148 19 215 31 74
13 164 25 226 30 18 2 63 8 100 14 38 6 107 16 154 22 47 6 114 15 150 20 36
5 88 11 115 14 28 2 70 8 95 11 25 3 59 8 75 9 99 11 227 27 270 35 28 5 84
12 125 15 41 3 84 8 95 10 11 2 40 6 65 9 25 3 101 12 170 20 140 17 357 41
500 56 52 6 151 17 220 25 69 8 154 17 190 20 148 12 177 15 210 20 19 2 64 7
100 10 36 3 103 11 150 16 97 12 138 16 230 23 36 3 75 7 87 10 11 2 70 8 130
11 59 4 111 9 114 11 3 2 37 6 75 9 38 3 139 12 224 20 85 8 187 17 225 20 39
4 108 10 155 15 47 4 88 6 92 4 3 -2 17 0 30 5 13 5 78 12 143 16 66 3 122 8
125 10 3 2 41 6 85 9 44 3 103 8 130 11 28 3 82 7 120 10 39 2 122 9 185 15
165 15 196 18 490 40 411 31 415 32 421 35 3 2 34 5 70 6 35 1 129 7 209 15
80 7 191 16 247 19 56 2 116 7 135 9 33 5 112 10 298 21 52 3 115 8 140 10 64
7 152 14 255 20 110 6 192 12 310 21 50 4 93 7 97 6 3 -1 55 3 115 8 107 10
820 57 983 65 117 6 239 15 275 20 17 2 89 6 160 10 165 9 228 12 340 19 99 6
217 13 340 21 44 3 114 7 155 9 41 3 127 8 190 11 63 3 140 8 170 10 59 4 200
13 345 20 50 3 131 7 180 10 50 3 137 7 195 10 58 3 134 7 170 10 36 2 117 7
180 10 63 3 149 8 190 10 41 3 127 7 190 10 275 12 338 15 390 20 30 2 123 7
205 10 288 12 341 15 435 19 141 8 271 15 400 21 63 3 160 8 215 10 112 6 239
12 455 20 80 3 179 8 220 10 89 6 296 15 700 30 157 6 308 13 435 20 50 3 158
7 240 10 351 12 446 15 550 20 61 2 184 7 275 10 91 3 201 7 245 10 44 2 163
7 265 10 102 3 228 8 280 10 52 3 181 7 285 10 105 3 249 7 320 10 72 3 200 7
285 10 85 3 209 7 275 10 66 3 228 7 360 11 132 3 285 7 340 9 108 4 358 12
630 20 94 2 242 7 330 10 338 11 508 15 745 21 135 2 315 7 400 9 85 3 265 7
400 10 135 3 340 7 455 10 650 15 1053 23 1455 30 179 3 408 7 510 10 102 3
331 7 510 10 179 3 485 7 680 10 1130 17 1947 25 2669 28 l514 2 19 -30 c10
-16 22 -39 27 -50 5 -11 18 -29 28 -40 10 -11 31 -37 47 -57 l28 -37 -49 -63
c-26 -35 -51 -65 -54 -68 -4 -3 -17 -25 -29 -48 -25 -48 -26 -49 -90 -56 -88
-11 -147 -35 -197 -83 -7 -6 -16 -13 -21 -15 -28 -11 -117 -188 -95 -188 3 0
0 -6 -6 -14 -7 -8 -10 -41 -7 -89 4 -60 11 -88 37 -137 18 -34 38 -64 45 -67
8 -3 14 -12 14 -19 0 -8 8 -18 18 -21 9 -4 19 -10 22 -13 7 -11 87 -49 145
-70 69 -25 182 -48 299 -61 78 -8 106 -16 130 -34 39 -30 113 -62 163 -70 77
-13 203 -4 203 16 0 5 9 9 19 9 11 0 23 4 26 10 3 6 118 9 293 10 275 0 312 3
438 33 12 3 58 23 102 45 l80 39 11 -23 c5 -13 30 -33 53 -45 24 -12 54 -29
68 -39 76 -53 225 -49 337 9 50 25 143 116 143 139 0 5 4 12 8 14 5 2 16 37
25 78 18 83 17 244 -2 301 -6 19 -20 63 -30 99 -38 127 -71 206 -100 243 -14
17 -11 22 32 63 26 24 47 46 47 49 0 2 13 23 29 47 16 24 38 68 50 98 12 30
29 68 37 83 8 16 14 37 14 48 0 21 21 21 1195 19 231 -1 427 -1 435 -1 128 2
660 0 800 -4 102 -2 516 -7 920 -11 404 -3 843 -7 975 -9 132 -2 467 -6 745
-10 278 -4 569 -8 648 -9 l142 -3 0 23 c0 23 -3 24 -82 24 -46 0 -200 2 -343
5 -143 2 -456 6 -695 10 -423 5 -704 8 -2075 21 -363 4 -1107 7 -1652 6 l-993
0 7 57 c10 75 10 241 -1 320 l-8 64 24 -7 c12 -4 41 -10 63 -12 50 -6 104 -23
130 -40 11 -8 29 -14 40 -14 23 -1 68 -37 78 -63 10 -25 25 -21 72 21 62 55
77 66 115 80 61 24 162 40 225 36 77 -5 256 -53 275 -75 15 -16 57 -39 72 -39
9 0 20 9 23 20 4 12 24 32 46 45 45 29 110 33 173 10 48 -17 54 -11 80 73 36
118 126 276 196 344 15 15 36 37 46 50 21 26 139 128 147 128 4 0 22 11 42 24
93 63 300 116 457 116 158 0 418 -63 480 -118 20 -17 48 -10 48 12 0 22 84 82
148 107 65 24 162 28 231 10 53 -15 59 -10 81 62 37 119 161 266 299 352 9 6
28 18 43 28 14 9 31 17 38 17 6 0 30 9 53 21 97 48 297 81 449 73 125 -5 353
-67 428 -114 8 -6 26 -15 39 -20 77 -34 311 -238 311 -273 0 -5 10 -23 23 -40
25 -37 57 -103 57 -122 0 -30 26 -36 91 -19 77 20 127 21 200 4 59 -14 180
-68 217 -97 52 -41 111 -103 145 -151 l35 -51 6 31 c5 24 0 39 -21 67 -48 65
-135 138 -212 179 -132 69 -244 91 -346 68 -33 -8 -63 -12 -67 -10 -5 3 -21
31 -36 62 -16 31 -41 77 -56 101 -39 60 -191 211 -214 211 -6 0 -12 4 -14 9
-4 12 -120 81 -191 114 -32 15 -95 36 -140 47 -45 11 -100 26 -122 32 -50 14
-250 17 -348 6 -137 -16 -215 -42 -367 -123 -136 -73 -304 -263 -339 -383 -10
-35 -16 -42 -30 -37 -34 11 -175 8 -221 -5 -58 -15 -139 -61 -168 -95 -26 -30
-21 -30 -137 14 -115 44 -278 73 -405 72 -126 -2 -315 -42 -395 -84 -116 -62
-124 -66 -179 -112 -41 -33 -133 -133 -218 -235 -26 -31 -88 -153 -88 -173 0
-9 -4 -18 -9 -21 -9 -6 -36 -95 -33 -108 3 -11 1 -10 -48 7 -38 13 -69 13
-140 -1 -14 -2 -43 -20 -65 -38 l-39 -33 -66 33 c-136 68 -313 87 -450 48 -68
-20 -95 -33 -154 -79 l-47 -36 -28 24 c-16 13 -41 28 -57 34 -74 28 -198 63
-224 63 -43 0 -80 17 -80 37 0 16 -67 161 -80 173 -4 3 -18 22 -34 42 -30 40
-27 52 22 107 12 14 22 31 22 38 0 7 7 29 16 50 64 147 83 299 57 453 -16 97
-82 240 -123 267 -13 9 -31 24 -40 34 -54 63 -263 127 -382 116 -84 -7 -201
-45 -234 -75 -26 -24 -28 -25 -38 -8 -36 61 -134 155 -162 156 -6 0 -24 7 -40
14 -59 30 -203 55 -292 50 -87 -4 -203 -33 -257 -66 -16 -10 -40 -22 -53 -28
-12 -5 -56 -43 -97 -84 -86 -86 -129 -168 -164 -309 -22 -90 -23 -215 -1 -272
12 -31 13 -46 3 -43 -13 4 -103 -34 -103 -43 0 -5 -7 -9 -15 -9 -8 0 -15 -3
-15 -8 0 -4 -13 -13 -28 -20 -44 -19 -217 -191 -257 -254 -19 -32 -39 -58 -43
-59 -4 0 -47 -2 -97 -3 -49 -1 -98 -6 -107 -10 -16 -7 -18 -2 -18 36 0 55 -24
138 -57 200 -35 64 -121 131 -205 158 -21 6 -38 14 -38 16 0 3 5 25 11 50 10
37 9 52 -6 89 -9 25 -21 45 -26 45 -5 0 -9 5 -9 10 0 11 -26 38 -56 58 -21 13
-20 13 -86 37 -41 14 -48 21 -48 43 -1 177 -23 331 -59 405 -12 24 -21 47 -21
52 0 4 -25 45 -55 90 -188 284 -571 468 -1000 481 -147 5 -222 -6 -350 -48
-68 -22 -268 -117 -273 -130 -2 -4 -8 -8 -13 -8 -4 0 -43 -26 -86 -59 -74 -55
-135 -116 -158 -155 -10 -17 -13 -17 -48 -2 -40 16 -99 22 -132 11 -17 -5 -23
0 -34 32 -30 84 -122 191 -222 259 -62 41 -177 92 -224 99 -11 2 -40 7 -65 12
-25 5 -76 8 -115 7 -69 -3 -90 -5 -151 -19 -28 -6 -33 -3 -51 27 -27 45 -117
112 -179 132 -51 17 -51 17 -63 74 -15 68 -61 192 -72 192 -4 0 -11 10 -15 23
-13 43 -113 163 -186 223 -68 56 -208 144 -229 144 -5 0 -28 8 -52 19 -55 24
-92 37 -147 49 -25 6 -56 14 -70 17 -23 7 -269 22 -274 18z m6289 -1537 c40
-6 135 -41 160 -58 79 -56 145 -142 165 -218 7 -25 15 -52 18 -60 12 -35 14
-50 13 -155 0 -83 -6 -135 -25 -210 -25 -103 -21 -138 10 -89 31 46 54 152 60
274 6 113 0 159 -34 268 -9 28 -8 35 11 52 11 11 46 30 76 41 68 26 239 38
293 20 19 -6 45 -13 57 -16 36 -7 130 -65 169 -105 56 -56 79 -91 93 -140 7
-25 16 -50 20 -56 10 -12 22 -113 20 -164 -6 -176 -53 -328 -138 -447 -13 -17
-23 -34 -23 -37 0 -3 22 -38 50 -79 178 -262 190 -594 33 -914 -15 -29 -30
-53 -35 -53 -4 0 -8 -5 -8 -12 0 -6 -32 -42 -71 -79 -67 -64 -84 -98 -45 -91
9 2 23 -4 32 -13 16 -16 67 -143 103 -258 55 -176 39 -388 -35 -467 -19 -19
-34 -38 -34 -42 0 -15 -117 -66 -176 -76 -81 -14 -189 11 -223 52 -7 9 -16 14
-20 11 -4 -2 -22 9 -39 25 l-31 28 28 19 c77 49 181 157 181 188 0 18 -34 -4
-95 -61 -114 -108 -280 -206 -371 -219 -22 -4 -53 -10 -71 -15 -41 -11 -514
-12 -532 -1 -10 7 -8 17 12 48 60 95 75 364 18 329 -7 -4 -11 -42 -11 -94 0
-149 -49 -257 -145 -318 -51 -33 -285 -19 -285 17 0 5 -5 9 -11 9 -18 0 -58
36 -85 76 -49 72 -87 222 -86 340 0 60 -12 88 -29 64 -12 -18 -5 -193 11 -260
13 -55 40 -131 53 -147 16 -22 -135 -5 -268 29 -66 17 -122 33 -125 37 -3 3
-23 15 -45 26 -130 64 -186 211 -138 365 37 121 108 187 233 216 58 14 66 13
56 -8 -52 -101 -63 -125 -59 -135 9 -22 31 -14 42 15 25 62 120 222 132 222 5
0 9 5 9 11 0 9 54 94 70 109 3 3 18 20 33 38 l27 34 -45 58 c-25 32 -52 65
-59 73 -15 15 -72 123 -104 197 -10 25 -25 80 -31 122 -18 114 -9 315 13 280
4 -7 23 -12 41 -12 26 0 33 3 29 15 -4 8 -10 15 -16 15 -5 0 -16 7 -25 15 -8
8 -19 13 -24 9 -23 -14 37 155 73 208 10 14 18 29 18 32 0 13 75 104 123 150
84 79 163 137 240 176 66 34 72 39 70 66 -16 183 -14 256 11 339 35 119 150
274 236 318 19 10 46 25 60 32 98 54 229 68 395 41z"/>
<path d="M30277 4462 c-35 -39 -12 -86 39 -80 34 4 55 52 33 73 -25 24 -55 26
-72 7z"/>
<path d="M30354 4301 c-18 -11 -35 -24 -38 -29 -11 -18 24 -22 59 -8 32 14 34
13 52 -10 24 -33 45 -38 88 -20 34 15 37 14 57 -9 11 -13 33 -26 47 -29 50
-11 155 43 123 63 -8 5 -31 2 -54 -6 -47 -16 -70 -11 -102 23 -22 25 -23 25
-67 10 -43 -15 -44 -15 -67 9 -27 30 -56 32 -98 6z"/>
<path d="M30309 4179 c-22 -22 -21 -47 2 -40 51 14 58 12 90 -23 33 -38 55
-41 90 -10 19 17 35 18 52 4 61 -52 61 -52 106 -46 45 6 74 25 93 60 9 16 7
18 -13 14 -13 -3 -40 -13 -60 -21 -37 -16 -37 -16 -80 18 -50 40 -61 41 -107
16 l-34 -17 -33 33 c-38 38 -75 43 -106 12z"/>
<path d="M9740 7205 c-91 -37 -138 -45 -265 -40 -122 5 -173 13 -212 33 -33
18 -49 15 -85 -19 -44 -41 -150 -94 -228 -114 -62 -16 -148 -16 -249 1 -35 6
-43 4 -39 -7 11 -35 174 -56 281 -37 62 12 207 79 247 115 37 33 29 32 105 8
75 -24 325 -28 390 -6 94 32 135 54 135 72 0 24 -11 23 -80 -6z"/>
<path d="M8056 7103 c-76 -50 -130 -73 -167 -73 -21 0 -40 4 -43 9 -3 4 -27
16 -53 26 -26 9 -67 27 -90 38 l-42 20 -56 -34 c-31 -19 -79 -51 -106 -71 -48
-37 -86 -47 -105 -29 -5 5 -49 26 -98 45 -86 35 -113 38 -140 14 -6 -5 -34
-23 -61 -41 -86 -54 -125 -89 -125 -108 0 -20 15 -26 25 -9 13 20 189 130 210
130 11 0 69 -20 128 -45 l108 -46 55 38 c30 21 64 43 75 49 10 6 27 18 36 27
24 21 70 32 86 20 6 -5 39 -20 72 -32 33 -13 67 -26 75 -31 9 -4 30 -11 47
-14 30 -7 33 -6 168 68 41 22 84 59 79 68 -9 14 -38 8 -78 -19z"/>
<path d="M8210 6852 c-8 -3 -73 -39 -144 -79 l-129 -74 -71 26 c-39 14 -90 37
-113 51 -23 13 -47 24 -53 24 -6 0 -59 -31 -116 -70 -58 -38 -113 -70 -123
-70 -10 0 -44 13 -76 30 -104 53 -163 72 -188 59 -12 -7 -24 -15 -27 -19 -3
-4 -25 -20 -50 -35 -25 -15 -55 -39 -67 -52 -46 -48 -18 -59 37 -15 54 45 118
82 139 82 24 0 104 -34 140 -59 14 -10 44 -24 65 -30 36 -9 43 -8 72 14 18 14
35 25 38 25 2 0 35 20 72 45 36 25 73 45 80 45 7 0 37 -11 66 -24 122 -55 152
-66 174 -66 13 0 24 5 24 10 0 6 5 10 12 10 18 0 213 109 249 140 24 19 29 28
18 32 -8 3 -21 3 -29 0z"/>
<path d="M5880 6386 c-12 -33 -12 -116 0 -171 18 -86 43 -171 54 -185 6 -8 20
-32 30 -52 11 -21 23 -38 28 -38 5 0 7 -4 4 -8 -11 -18 139 -174 222 -231 19
-13 45 -35 59 -49 23 -22 24 -28 13 -46 -14 -22 -22 -177 -10 -196 4 -6 -15
-32 -42 -59 -33 -33 -48 -56 -48 -75 0 -34 13 -33 35 2 9 15 39 47 66 72 l50
45 -16 68 c-16 70 -9 132 18 166 9 11 3 21 -28 47 -22 19 -43 34 -46 34 -7 0
-78 61 -133 115 -58 56 -99 111 -144 191 -34 61 -47 99 -78 229 -11 44 -11 87
-2 114 6 18 5 29 -6 39 -14 14 -16 12 -26 -12z"/>
<path d="M1578 6206 c-26 -7 -54 -18 -62 -26 -22 -18 -20 -40 4 -40 11 0 20 4
20 8 0 16 76 32 149 32 63 0 71 2 71 19 0 17 -8 19 -67 19 -38 0 -89 -5 -115
-12z"/>
<path d="M1120 5833 c-48 -17 -159 -76 -184 -98 -16 -14 -32 -25 -35 -25 -8 0
-85 -75 -126 -121 -69 -79 -125 -204 -140 -313 -5 -36 -11 -50 -26 -53 -10 -3
-19 -9 -19 -13 0 -5 -8 -11 -18 -14 -25 -8 -59 -73 -45 -87 16 -16 47 -6 51
16 6 30 32 55 58 55 17 0 25 7 28 23 2 12 12 61 20 110 12 65 25 101 51 142
19 30 35 58 35 63 0 13 114 128 172 174 49 40 181 108 209 108 19 0 42 24 32
33 -7 8 -41 8 -63 0z"/>
<path d="M25835 5475 c-33 -7 -104 -31 -158 -53 -260 -109 -417 -278 -479
-516 -16 -61 -30 -93 -43 -100 -76 -43 -99 -63 -135 -116 -43 -63 -61 -122
-41 -134 12 -8 54 17 45 27 -25 25 79 161 133 173 15 3 33 7 40 9 6 2 16 30
23 62 26 132 84 259 155 336 18 20 35 40 36 44 6 13 126 103 137 103 5 0 15 7
22 15 14 16 56 38 151 76 84 34 149 49 212 50 62 1 79 12 48 28 -25 14 -71 13
-146 -4z"/>
<path d="M26250 5382 c0 -14 21 -28 55 -36 38 -9 212 -93 220 -106 12 -20 114
-90 130 -90 9 0 37 6 63 14 26 8 59 17 75 20 15 4 27 13 27 20 0 23 -41 26
-99 6 -42 -14 -60 -16 -76 -8 -26 14 -99 71 -103 80 -2 5 -11 8 -19 8 -8 0
-28 11 -45 25 -16 14 -36 25 -44 25 -8 0 -33 9 -55 20 -48 23 -129 37 -129 22z"/>
<path d="M5943 5149 c-38 -11 -47 -23 -30 -37 18 -16 99 8 95 28 -4 18 -23 21
-65 9z"/>
<path d="M318 5049 c-10 -5 -18 -16 -18 -24 0 -11 11 -13 53 -8 62 7 64 8 47
28 -14 17 -56 19 -82 4z"/>
<path d="M20970 5034 c-63 -13 -108 -43 -96 -62 4 -6 20 -4 44 7 20 10 63 23
95 30 37 8 57 17 57 27 0 17 -15 17 -100 -2z"/>
<path d="M24590 4497 c-33 -11 -52 -47 -20 -38 8 3 62 6 119 8 57 1 106 5 109
8 3 3 -3 12 -14 20 -24 18 -144 19 -194 2z"/>
<path d="M37230 3182 c0 -6 -6 -17 -13 -24 -52 -53 -227 -382 -227 -426 0 -38
22 -21 56 44 69 132 106 201 129 239 14 22 29 49 34 60 5 11 19 31 30 45 23
25 25 61 4 68 -7 2 -13 -1 -13 -6z"/>
<path d="M36899 3098 c-22 -24 -114 -207 -144 -288 -29 -76 -30 -107 -6 -119
18 -10 21 -9 21 8 0 46 67 203 145 341 33 58 37 80 15 80 -5 0 -19 -10 -31
-22z"/>
<path d="M37417 3043 c-13 -21 -32 -51 -43 -68 -21 -35 -24 -39 -88 -159 -37
-69 -45 -91 -34 -97 20 -13 23 -12 49 34 13 23 28 50 34 59 5 9 23 41 39 70
15 29 34 60 42 69 8 8 14 19 14 23 0 4 11 24 25 44 30 44 32 62 5 62 -12 0
-29 -15 -43 -37z"/>
<path d="M20617 2724 c-26 -30 -127 -220 -127 -240 0 -8 4 -14 8 -14 19 0 43
30 82 105 24 44 51 91 60 105 10 14 21 35 24 48 10 31 -18 29 -47 -4z"/>
<path d="M26156 2678 c-59 -94 -149 -277 -142 -293 10 -26 23 -17 51 38 38 75
64 122 112 208 24 42 43 81 43 87 0 29 -33 7 -64 -40z"/>
<path d="M20212 2693 c-28 -25 -122 -208 -122 -238 0 -40 25 -29 48 23 12 26
42 84 67 130 25 45 45 87 45 92 0 15 -15 12 -38 -7z"/>
<path d="M20377 2669 c-15 -22 -27 -47 -27 -54 0 -8 -4 -16 -9 -19 -17 -11
-53 -96 -47 -111 10 -27 26 -16 49 33 12 26 28 53 35 60 6 7 12 18 12 23 0 5
12 28 26 51 21 32 23 42 12 49 -20 13 -23 12 -51 -32z"/>
<path d="M25901 2668 c-6 -13 -20 -36 -31 -53 -11 -16 -25 -40 -31 -52 -7 -13
-16 -23 -21 -23 -4 0 -8 -5 -8 -12 0 -6 -6 -19 -14 -27 -17 -21 -37 -81 -30
-92 7 -12 38 19 59 61 10 19 30 51 45 70 15 19 37 54 50 78 13 23 27 42 32 42
4 0 8 7 8 15 0 24 -45 18 -59 -7z"/>
<path d="M26356 2603 c-16 -51 -31 -87 -79 -191 -14 -29 5 -52 25 -31 15 15
58 103 58 118 0 5 6 22 14 38 37 73 45 100 33 112 -21 21 -33 11 -51 -46z"/>
<path d="M15692 2638 c-16 -21 -69 -131 -76 -160 -3 -14 -3 -34 0 -42 10 -25
34 -19 34 8 0 13 6 37 14 53 48 97 65 137 60 144 -7 13 -20 11 -32 -3z"/>
<path d="M15869 2633 c-21 -24 -79 -159 -79 -181 0 -9 5 -24 10 -32 7 -11 16
2 40 55 17 39 37 84 45 100 27 61 17 97 -16 58z"/>
<path d="M16032 2623 c-20 -41 -54 -164 -48 -178 14 -37 40 -1 67 94 11 36 19
74 19 83 0 23 -27 23 -38 1z"/>
<path d="M9892 2328 c-5 -7 -31 -55 -56 -106 -38 -75 -45 -96 -36 -112 6 -11
14 -20 18 -20 10 0 32 50 32 71 0 10 4 21 10 24 5 3 17 23 27 43 9 20 25 49
35 64 20 29 17 48 -6 48 -8 0 -18 -6 -24 -12z"/>
<path d="M10127 2331 c-16 -6 -41 -46 -82 -131 -9 -19 -27 -55 -39 -80 -24
-50 -28 -81 -9 -87 8 -3 31 33 59 92 25 53 59 120 75 147 30 51 29 71 -4 59z"/>
<path d="M10395 2288 c-20 -24 -51 -99 -59 -142 -10 -56 29 -32 54 34 7 19 19
42 27 51 7 8 16 30 19 47 8 39 -12 44 -41 10z"/>
<path d="M34746 2031 c-9 -10 -16 -21 -16 -26 0 -13 -134 -280 -142 -283 -11
-5 -10 -42 0 -42 21 0 45 33 99 135 58 110 70 135 92 188 14 35 14 34 -3 40
-8 3 -21 -2 -30 -12z"/>
<path d="M6911 2019 c-24 -26 -89 -158 -97 -198 -6 -26 -4 -31 14 -31 13 0 21
9 25 28 3 15 17 47 32 72 29 51 36 63 59 106 14 28 14 33 1 38 -8 3 -23 -4
-34 -15z"/>
<path d="M6666 2018 c-3 -7 -17 -31 -31 -53 -59 -96 -89 -175 -65 -175 14 0
49 40 50 58 0 13 19 49 35 67 23 26 48 84 42 99 -8 19 -23 21 -31 4z"/>
<path d="M7066 1988 c-35 -61 -58 -136 -48 -155 8 -13 13 -10 31 15 11 17 21
34 21 40 0 5 11 35 25 66 29 65 30 76 10 76 -8 0 -25 -19 -39 -42z"/>
<path d="M34477 2013 c-4 -3 -7 -17 -7 -29 0 -13 -4 -25 -9 -29 -5 -3 -17 -29
-27 -58 -9 -28 -23 -59 -30 -68 -8 -8 -14 -20 -14 -26 0 -6 -9 -30 -20 -54
-41 -91 -14 -122 29 -33 21 45 31 67 74 164 29 67 44 115 40 128 -5 13 -25 16
-36 5z"/>
<path d="M34252 1990 c-10 -11 -25 -33 -33 -48 -8 -15 -31 -55 -51 -89 -21
-35 -38 -69 -38 -77 0 -8 -3 -16 -7 -18 -13 -5 -54 -99 -48 -109 16 -24 44 -2
65 51 15 40 58 119 100 188 51 83 61 102 55 112 -9 15 -22 12 -43 -10z"/>
<path d="M18213 1778 c-13 -17 -34 -103 -38 -155 -3 -40 -2 -43 21 -43 22 0
25 4 22 28 -3 31 21 140 33 148 12 7 -1 34 -16 34 -7 0 -17 -6 -22 -12z"/>
<path d="M18454 1782 c-17 -11 -49 -145 -40 -168 7 -18 8 -18 27 5 10 13 19
31 19 41 0 10 7 34 15 53 25 61 16 94 -21 69z"/>
<path d="M18003 1698 c-12 -35 -25 -80 -28 -100 -6 -34 -5 -38 13 -38 16 0 24
10 33 43 6 23 16 56 23 72 6 17 11 32 11 35 0 3 4 11 8 18 11 16 0 32 -21 32
-12 0 -24 -19 -39 -62z"/>
<path d="M29186 1733 c-8 -16 -28 -57 -45 -93 -17 -36 -36 -72 -41 -80 -19
-28 -32 -65 -37 -103 -10 -71 20 -30 102 138 74 152 78 165 58 165 -14 0 -27
-10 -37 -27z"/>
<path d="M29390 1743 c0 -10 -14 -56 -31 -103 -55 -154 -62 -180 -48 -196 14
-17 21 -4 71 136 16 47 34 94 38 105 10 21 13 42 11 63 -2 19 -41 15 -41 -5z"/>
<path d="M29545 1688 c-2 -7 -6 -31 -10 -53 -4 -22 -12 -46 -17 -53 -6 -7 -8
-15 -5 -19 4 -3 0 -18 -8 -32 -44 -80 -58 -136 -35 -136 18 0 67 86 76 135 4
19 13 44 20 55 15 24 21 85 10 103 -9 16 -26 16 -31 0z"/>
<path d="M22331 1578 c-57 -118 -63 -141 -40 -146 12 -2 29 23 63 95 26 54 51
105 55 113 4 8 6 21 4 28 -11 32 -36 4 -82 -90z"/>
<path d="M22560 1668 c0 -6 -6 -19 -14 -27 -12 -14 -30 -49 -71 -131 -18 -36
-27 -80 -17 -80 11 0 62 57 62 70 0 5 16 40 35 77 38 73 44 103 20 103 -8 0
-15 -5 -15 -12z"/>
<path d="M22690 1576 c-21 -46 -42 -99 -45 -119 -6 -32 -5 -35 13 -30 14 3 32
34 61 104 45 109 49 129 25 129 -10 0 -30 -31 -54 -84z"/>
<path d="M3039 1467 c-22 -30 -89 -173 -89 -190 0 -7 -5 -18 -11 -24 -15 -15
-7 -58 10 -58 8 0 18 11 21 25 4 14 19 50 33 81 15 31 27 60 27 65 0 5 14 29
30 54 16 25 30 51 30 58 0 20 -34 13 -51 -11z"/>
<path d="M2766 1455 c-13 -14 -31 -46 -41 -72 -10 -27 -21 -52 -25 -58 -4 -5
-11 -29 -15 -51 -5 -32 -2 -45 10 -58 25 -25 32 -20 33 28 0 32 13 71 45 135
24 50 42 93 39 96 -10 10 -23 5 -46 -20z"/>
<path d="M3229 1434 c-40 -66 -86 -183 -82 -208 7 -36 28 -22 48 32 10 26 34
79 55 117 20 39 35 76 33 83 -8 22 -31 12 -54 -24z"/>
<path d="M12818 1392 c-9 -20 -25 -57 -36 -82 -11 -25 -23 -63 -27 -85 -4 -22
-9 -48 -12 -57 -2 -11 1 -18 9 -18 15 0 48 60 48 86 0 8 18 52 40 98 22 46 40
86 40 90 0 3 -10 6 -22 6 -17 0 -28 -11 -40 -38z"/>
<path d="M13043 1378 c-10 -18 -25 -49 -33 -68 -8 -19 -22 -50 -32 -68 -25
-45 -23 -62 6 -62 13 0 23 6 23 13 -2 19 62 149 85 174 11 12 17 26 13 32 -13
21 -43 11 -62 -21z"/>
<path d="M13254 1392 c-19 -20 -64 -147 -64 -179 0 -24 30 -13 36 12 3 14 10
25 15 25 4 0 11 17 15 38 4 20 11 42 16 49 5 6 8 27 6 45 l-3 33 -21 -23z"/>
</g>
</svg>
